<svg width="20" height="20" viewBox="0 0 20 20" fill="none" xmlns="http://www.w3.org/2000/svg">
<g clip-path="url(#clip0_624_83)">
<path d="M16.9308 3.6414C15.6342 3.0462 14.2658 2.62177 12.8599 2.37873C12.8471 2.37635 12.834 2.37806 12.8222 2.38361C12.8105 2.38916 12.8008 2.39827 12.7945 2.40965C12.6187 2.7224 12.4239 3.13032 12.2876 3.4509C10.7503 3.22073 9.22092 3.22073 7.71525 3.4509C7.57892 3.12315 7.37709 2.7224 7.2005 2.40965C7.19396 2.39853 7.18422 2.38964 7.17255 2.38414C7.16088 2.37864 7.14783 2.37678 7.13509 2.37882C5.72907 2.62129 4.36058 3.04568 3.06409 3.64132C3.05299 3.64606 3.04365 3.65412 3.03734 3.6644C0.444503 7.53807 -0.26583 11.3165 0.08267 15.0481C0.0836554 15.0572 0.0864643 15.066 0.0909303 15.0741C0.0953964 15.0821 0.101429 15.0892 0.10867 15.0948C1.81934 16.3511 3.47642 17.1138 5.10275 17.6193C5.1154 17.6231 5.1289 17.6229 5.14144 17.6188C5.15398 17.6147 5.16496 17.6068 5.17292 17.5963C5.55759 17.071 5.9005 16.517 6.19459 15.9345C6.19863 15.9265 6.20094 15.9178 6.20136 15.9088C6.20178 15.8999 6.2003 15.891 6.19703 15.8827C6.19375 15.8743 6.18875 15.8668 6.18236 15.8606C6.17596 15.8543 6.16831 15.8495 6.15992 15.8464C5.61592 15.6401 5.098 15.3885 4.59975 15.1028C4.59067 15.0975 4.58303 15.09 4.57753 15.081C4.57203 15.072 4.56882 15.0618 4.56819 15.0513C4.56757 15.0408 4.56954 15.0303 4.57394 15.0207C4.57834 15.0111 4.58503 15.0028 4.59342 14.9964C4.69825 14.9178 4.80317 14.8361 4.90325 14.7536C4.91215 14.7462 4.92291 14.7415 4.93434 14.74C4.94577 14.7384 4.9574 14.7401 4.96792 14.7448C8.24109 16.2392 11.7846 16.2392 15.0191 14.7448C15.0296 14.7398 15.0414 14.7379 15.0529 14.7393C15.0645 14.7407 15.0755 14.7454 15.0845 14.7527C15.1847 14.8352 15.2895 14.9178 15.3952 14.9964C15.4036 15.0027 15.4103 15.011 15.4148 15.0205C15.4192 15.0301 15.4213 15.0405 15.4207 15.051C15.4202 15.0615 15.4171 15.0717 15.4117 15.0808C15.4062 15.0898 15.3987 15.0973 15.3897 15.1027C14.8912 15.3939 14.3691 15.6424 13.8288 15.8456C13.8204 15.8488 13.8128 15.8537 13.8065 15.8601C13.8001 15.8664 13.7952 15.874 13.792 15.8824C13.7888 15.8908 13.7874 15.8998 13.7879 15.9088C13.7884 15.9177 13.7908 15.9265 13.7949 15.9345C14.0953 16.5162 14.4382 17.0702 14.8158 17.5955C14.8235 17.6063 14.8344 17.6145 14.847 17.6187C14.8596 17.623 14.8732 17.6232 14.8859 17.6193C16.5201 17.1137 18.1772 16.3511 19.8878 15.0948C19.8952 15.0894 19.9013 15.0826 19.9058 15.0746C19.9103 15.0667 19.9131 15.0579 19.9139 15.0488C20.3309 10.7346 19.2154 6.98723 16.9568 3.66515C16.9513 3.65436 16.9421 3.6459 16.9308 3.64132V3.6414ZM6.68334 12.7759C5.69792 12.7759 4.88592 11.8711 4.88592 10.7601C4.88592 9.64907 5.68217 8.74432 6.68342 8.74432C7.69242 8.74432 8.4965 9.65698 8.48075 10.7601C8.48075 11.8712 7.6845 12.7759 6.68334 12.7759ZM13.329 12.7759C12.3436 12.7759 11.5316 11.8711 11.5316 10.7601C11.5316 9.64907 12.3278 8.74432 13.329 8.74432C14.338 8.74432 15.1421 9.65698 15.1263 10.7601C15.1263 11.8712 14.338 12.7759 13.329 12.7759Z" fill="#FCFCFC"/>
</g>
<defs>
<clipPath id="clip0_624_83">
<rect width="20" height="20" fill="white"/>
</clipPath>
</defs>
</svg>
