<svg width="58" height="20" viewBox="0 0 58 20" fill="none" xmlns="http://www.w3.org/2000/svg">
<path d="M2.39836 16.9421V0.393634H0V19.3062H6.11583V16.9421H2.39836Z" fill="#FCFCFC"/>
<path d="M15.6171 0.393634H13.2187V14.2707C13.2187 16.4693 12.859 17.1785 11.4679 17.1785C10.0769 17.1785 9.71712 16.4693 9.71712 14.2707V0.393634H7.31876V14.2707C7.31876 18.0768 8.68583 19.5426 11.4679 19.5426C14.25 19.5426 15.6171 18.0768 15.6171 14.2707V0.393634Z" fill="#FCFCFC"/>
<path d="M24.4787 0.393634V12.9705L19.7059 0.393634H17.3076V19.3062H19.7059V6.70569L24.4787 19.3062H26.877V0.393634H24.4787Z" fill="#FCFCFC"/>
<path d="M34.4611 8.07685H36.8595V5.42909C36.8595 1.62295 35.4924 0.157227 32.7103 0.157227C29.9282 0.157227 28.5611 1.62295 28.5611 5.42909V14.2707C28.5611 18.0768 29.9282 19.5426 32.7103 19.5426C35.4924 19.5426 36.8595 18.0768 36.8595 14.2707V11.6229H34.4611V14.2707C34.4611 16.4693 34.1014 17.1785 32.7103 17.1785C31.3193 17.1785 30.9595 16.4693 30.9595 14.2707V5.42909C30.9595 3.23051 31.3193 2.52129 32.7103 2.52129C34.1014 2.52129 34.4611 3.23051 34.4611 5.42909V8.07685Z" fill="#FCFCFC"/>
<path d="M37.9336 10C37.9336 16.6824 43.4179 20 47.2792 20L49.054 20C52.9154 20 57.9999 16.4854 57.9999 10C57.9999 3.51458 52.9154 -6.45509e-07 49.054 -4.79137e-07L47.2792 -4.02668e-07C43.4179 -2.36296e-07 37.9336 3.31757 37.9336 10ZM49.054 2.36406C51.2845 2.36406 55.6015 4.88574 55.6015 10C55.6015 15.1143 51.2845 17.6359 49.054 17.6359L47.2792 17.6359C45.0487 17.6359 40.332 15.3113 40.332 10C40.332 4.68873 45.0487 2.36406 47.2792 2.36406L49.054 2.36406Z" fill="#FCFCFC"/>
<path d="M49.054 2.36406C51.2845 2.36406 55.6015 4.88574 55.6015 10C55.6015 15.1143 51.2845 17.6359 49.054 17.6359L47.2792 17.6359C45.0487 17.6359 40.332 15.3113 40.332 10C40.332 4.68873 45.0487 2.36406 47.2792 2.36406L49.054 2.36406Z" fill="#FCFCFC"/>
</svg>
