<svg width="20" height="20" viewBox="0 0 20 20" fill="none" xmlns="http://www.w3.org/2000/svg">
<path d="M2.60833 1.11501C1.73333 1.63335 0.0166667 3.60668 0 4.12501V4.98335C0 6.06918 1.01667 7.02501 1.9375 7.02501C3.04583 7.02501 3.9675 6.10668 3.9675 5.01668C3.9675 6.10668 4.85917 7.02501 5.9675 7.02501C7.07417 7.02501 7.93583 6.10668 7.93583 5.01668C7.93583 6.10668 8.88333 7.02501 9.99083 7.02501H10.0108C11.1192 7.02501 12.0658 6.10668 12.0658 5.01668C12.0658 6.10668 12.9275 7.02501 14.035 7.02501C15.1433 7.02501 16.035 6.10668 16.035 5.01668C16.035 6.10668 16.9567 7.02501 18.0642 7.02501C18.9833 7.02501 20 6.06835 20 4.98335V4.12501C19.9833 3.60835 18.265 1.63335 17.3917 1.11501C14.6808 1.02001 12.8017 1.00335 10 1.00418C7.19833 1.00418 3.37917 1.04835 2.60833 1.11501ZM7.92167 6.51251C7.81568 6.69709 7.68441 6.86595 7.53167 7.01418C7.115 7.42251 6.54 7.67668 5.90917 7.67668C5.30169 7.67695 4.7183 7.4391 4.28417 7.01418C4.1325 6.86585 4.0175 6.70585 3.9125 6.52251C3.80667 6.70751 3.66 6.86585 3.5075 7.01418C3.07327 7.43895 2.48995 7.67677 1.8825 7.67668C1.80583 7.67668 1.72667 7.65585 1.6625 7.63335C1.57333 8.56085 1.53583 9.44668 1.5225 10.0917V10.0958L1.5175 11.0683C1.53417 13.0133 1.32583 17.3717 2.37583 18.4433C4.0025 18.8217 6.99667 18.995 10.0008 18.9958C13.005 18.9958 15.9992 18.8208 17.6258 18.4425C18.6758 17.3725 18.4675 13.0142 18.4842 11.0692L18.4792 10.0967V10.0933C18.4658 9.44751 18.4292 8.56168 18.3392 7.63501C18.275 7.65668 18.1958 7.67835 18.12 7.67835C17.5126 7.67843 16.9292 7.44062 16.495 7.01585C16.3417 6.86751 16.195 6.70918 16.09 6.52418C15.9842 6.70751 15.8692 6.86751 15.7175 7.01585C15.2832 7.44047 14.6999 7.678 14.0925 7.67751C13.4592 7.67751 12.8875 7.42501 12.4692 7.01668C12.3164 6.86845 12.1851 6.69959 12.0792 6.51501C11.9745 6.69935 11.8446 6.86819 11.6933 7.01668C11.259 7.44122 10.6757 7.67875 10.0683 7.67835H9.935C9.32777 7.67897 8.74445 7.44175 8.31 7.01751C8.15841 6.86908 8.02827 6.70023 7.92333 6.51585L7.92167 6.51251ZM6.25167 8.67085V8.67251C6.91417 8.67418 7.50167 8.67251 8.22917 9.46668C8.80167 9.40668 9.40083 9.37668 10 9.37751C10.6 9.37751 11.1983 9.40668 11.7708 9.46668C12.4983 8.67251 13.0858 8.67501 13.7475 8.67251C14.0608 8.67251 15.3108 8.67251 16.1808 11.1175L17.1167 14.4742C17.81 16.97 16.895 17.0308 15.7533 17.0325C14.0617 16.97 13.1233 15.7408 13.1233 14.5117C12.1867 14.665 11.0933 14.7417 10 14.7425C8.90667 14.7425 7.81333 14.665 6.87667 14.5117C6.87667 15.7408 5.93917 16.97 4.24667 17.0333C3.105 17.03 2.19 16.9692 2.88333 14.4733L3.81833 11.1175C4.68917 8.67251 5.93917 8.67251 6.25167 8.67251V8.67085ZM10 10.595C9.99833 10.5967 8.21667 12.2317 7.8975 12.8133L9.06417 12.7667V13.7833C9.06417 13.83 9.53083 13.8108 10 13.7892C10.4683 13.8108 10.9367 13.8308 10.9367 13.7825V12.7658L12.1033 12.8117C11.7817 12.2308 10 10.5942 10 10.5942V10.595Z" fill="#FCFCFC"/>
</svg>
