<svg width="379" height="102" viewBox="0 0 379 102" fill="none" xmlns="http://www.w3.org/2000/svg">
<path d="M12 86V1.99999H0V98H30.6V86H12Z" fill="#FCFCFC"/>
<path d="M78.1388 1.99999H66.1388V72.44C66.1388 83.6 64.3388 87.2 57.3788 87.2C50.4188 87.2 48.6188 83.6 48.6188 72.44V1.99999H36.6188V72.44C36.6188 91.76 43.4588 99.2 57.3788 99.2C71.2988 99.2 78.1388 91.76 78.1388 72.44V1.99999Z" fill="#FCFCFC"/>
<path d="M122.477 1.99999V65.84L98.5969 1.99999H86.5969V98H98.5969V34.04L122.477 98H134.477V1.99999H122.477Z" fill="#FCFCFC"/>
<path d="M172.423 41H184.423V27.56C184.423 8.23999 177.583 0.799988 163.663 0.799988C149.743 0.799988 142.903 8.23999 142.903 27.56V72.44C142.903 91.76 149.743 99.2 163.663 99.2C177.583 99.2 184.423 91.76 184.423 72.44V59H172.423V72.44C172.423 83.6 170.623 87.2 163.663 87.2C156.703 87.2 154.903 83.6 154.903 72.44V27.56C154.903 16.4 156.703 12.8 163.663 12.8C170.623 12.8 172.423 16.4 172.423 27.56V41Z" fill="#FCFCFC"/>
<path d="M189.801 50.76C189.801 84.68 217.241 101.52 236.561 101.52L245.441 101.52C264.761 101.52 290.201 83.68 290.201 50.76C290.201 17.84 264.761 1.19822e-05 245.441 1.28267e-05L236.561 1.32148e-05C217.241 1.40593e-05 189.801 16.84 189.801 50.76Z" fill="#FCFCFC"/>
<path d="M379 28V30H305V28H379Z" fill="#55B2C0"/>
<path d="M374.572 40.2728L373.112 42L309.026 16.7273L310.486 15.0001L374.572 40.2728Z" fill="#55B2C0"/>
<path d="M373.516 15L374.976 16.7273L310.89 42L309.43 40.2727L373.516 15Z" fill="#55B2C0"/>
<path d="M341 8H343V48H341V8Z" fill="#55B2C0"/>
</svg>
